<?xml version="1.0" encoding="utf-8"?>
<!-- Generator: Adobe Illustrator 16.0.0, SVG Export Plug-In . SVG Version: 6.00 Build 0)  -->
<!DOCTYPE svg PUBLIC "-//W3C//DTD SVG 1.1//EN" "http://www.w3.org/Graphics/SVG/1.1/DTD/svg11.dtd">
<svg version="1.1" xmlns="http://www.w3.org/2000/svg" xmlns:xlink="http://www.w3.org/1999/xlink" x="0px" y="0px" width="1000px"
	 height="1000px" viewBox="0 0 1000 1000" enable-background="new 0 0 1000 1000" xml:space="preserve">
<g id="Layer_1">
	<circle fill="none" stroke="#161616" stroke-width="20" stroke-miterlimit="10" cx="499.344" cy="431.345" r="357.733"/>
	<g>
		<path fill="#161616" d="M14.625,893.515l20.793-2.813h4.431v11.249H14.625V893.515z"/>
		<path fill="#161616" d="M67.204,913.456l5.369-1.448v-32.64c0-1.477-0.1-2.456-0.298-2.939c-0.2-0.482-0.754-0.923-1.662-1.321
			l-3.579-2.045l0.256-8.096h26.588l0.426,8.692l-6.306,1.704v16.021l14.913-16.106c0.227-0.227,0.341-0.54,0.341-0.938
			c0-0.284-0.085-0.54-0.255-0.768l-2.472-2.982l0.938-5.624h19.771l1.022,5.795L102.74,891.64l20.879,26.93v3.835h-16.277
			l-19.345-25.651v11.846c0,1.25,0.098,2.103,0.298,2.557c0.199,0.455,0.725,0.909,1.577,1.363l4.517,2.557l-0.341,7.329H67.63
			L67.204,913.456z"/>
		<path fill="#161616" d="M127.112,913.456l5.369-1.448v-32.64c0-1.477-0.1-2.456-0.298-2.939c-0.2-0.482-0.754-0.923-1.662-1.321
			l-3.579-2.045l0.256-8.096h26.588l0.426,8.692l-6.306,1.704v12.441l19.43-0.511v-7.926c0-1.477-0.114-2.456-0.341-2.939
			c-0.228-0.482-0.824-0.923-1.79-1.321l-4.176-2.386l0.426-7.755h26.162l0.341,8.947l-5.198,1.449v33.235
			c0,1.363,0.099,2.245,0.298,2.642c0.198,0.398,0.695,0.797,1.491,1.193l3.494,2.045l-0.341,7.926h-25.907l-0.426-8.777
			l5.965-1.619V899.31l-19.43-0.852v10.141c0,1.363,0.098,2.245,0.298,2.642c0.199,0.398,0.725,0.797,1.577,1.193l4.517,2.642
			l-0.341,7.329h-26.418L127.112,913.456z"/>
		<path fill="#161616" d="M191.368,914.819l2.642-1.619l19.941-48.319l14.487-1.278l17.044,46.019
			c0.567,1.479,0.965,2.443,1.193,2.897c0.227,0.456,0.652,1.08,1.278,1.875l1.534,1.96l-0.511,6.051H225.03l-0.853-8.096
			l6.051-1.534l-2.727-8.607l-17.299,0.256l-1.875,5.369c-0.17,0.511-0.256,0.938-0.256,1.278c0,0.397,0.071,0.696,0.213,0.895
			c0.141,0.2,0.383,0.355,0.724,0.469l5.88,2.472l-0.853,7.499h-22.327L191.368,914.819z M219.235,878.176l-5.625,16.361
			l10.993,0.512L219.235,878.176z"/>
		<path fill="#161616" d="M245.481,874.937l-2.897-4.005l0.341-5.965h24.458l0.512,8.096l-6.136,1.619l10.567,32.979l8.437-26.247
			l-3.75-10.994l0.341-5.453h22.668l0.511,8.096l-5.625,1.619l10.482,32.979l9.8-30.168c0.17-0.454,0.255-0.852,0.255-1.192
			c0-0.738-0.37-1.222-1.108-1.449l-5.795-2.386l0.511-7.499h22.328l0.426,7.243l-3.494,4.772l-17.896,45.763l-14.914,1.449
			l-8.948-26.077l-9.204,24.628l-15.766,1.449L245.481,874.937z"/>
		<path fill="#161616" d="M335.814,913.456l5.369-1.448v-32.64c0-1.477-0.1-2.456-0.298-2.939c-0.2-0.482-0.754-0.923-1.662-1.321
			l-3.579-2.045l0.256-8.096h26.588l0.426,8.692l-6.306,1.704v36.814l10.737-0.256l7.244-8.266l6.562,0.341
			c-0.114,4.772-0.511,10.908-1.193,18.407H336.24L335.814,913.456z"/>
		<path fill="#161616" d="M385.07,914.819l2.642-1.619l19.941-48.319l14.487-1.278l17.044,46.019
			c0.567,1.479,0.965,2.443,1.193,2.897c0.227,0.456,0.652,1.08,1.278,1.875l1.534,1.96l-0.511,6.051h-23.947l-0.853-8.096
			l6.051-1.534l-2.727-8.607l-17.299,0.256l-1.875,5.369c-0.17,0.511-0.256,0.938-0.256,1.278c0,0.397,0.071,0.696,0.213,0.895
			c0.141,0.2,0.383,0.355,0.724,0.469l5.88,2.472l-0.853,7.499h-22.327L385.07,914.819z M412.937,878.176l-5.625,16.361
			l10.993,0.512L412.937,878.176z"/>
		<path fill="#161616" d="M446.683,913.456l5.369-1.448v-32.64c0-1.477-0.1-2.456-0.298-2.939c-0.2-0.482-0.754-0.923-1.662-1.321
			l-3.579-2.045l0.256-8.096h26.588l0.426,8.692l-6.306,1.704v12.441l19.43-0.511v-7.926c0-1.477-0.114-2.456-0.341-2.939
			c-0.228-0.482-0.824-0.923-1.79-1.321l-4.176-2.386l0.426-7.755h26.162l0.341,8.947l-5.198,1.449v33.235
			c0,1.363,0.099,2.245,0.298,2.642c0.199,0.398,0.695,0.797,1.492,1.193l3.494,2.045l-0.342,7.926h-25.906l-0.426-8.777
			l5.965-1.619V899.31l-19.43-0.852v10.141c0,1.363,0.098,2.245,0.298,2.642c0.199,0.398,0.725,0.797,1.577,1.193l4.517,2.642
			l-0.341,7.329h-26.418L446.683,913.456z"/>
		<path fill="#161616" d="M525.512,914.819l2.642-1.619l19.94-48.319l14.488-1.278l17.043,46.019
			c0.568,1.479,0.967,2.443,1.193,2.897c0.227,0.456,0.652,1.08,1.279,1.875l1.533,1.96l-0.512,6.051h-23.945l-0.854-8.096
			l6.051-1.534l-2.727-8.607l-17.299,0.256l-1.875,5.369c-0.172,0.511-0.256,0.938-0.256,1.278c0,0.397,0.07,0.696,0.213,0.895
			c0.141,0.2,0.383,0.355,0.725,0.469l5.879,2.472l-0.852,7.499h-22.327L525.512,914.819z M553.379,878.176l-5.625,16.361
			l10.994,0.512L553.379,878.176z"/>
		<path fill="#161616" d="M592.663,915.757c-4.659-5.283-6.987-12.753-6.987-22.412c0-6.136,1.121-11.433,3.366-15.894
			c2.243-4.46,5.496-7.868,9.757-10.227c4.262-2.356,9.317-3.536,15.17-3.536c6.646,0,13.492,1.506,20.537,4.517
			c-0.511,5.112-1.335,10.767-2.471,16.958l-6.477,0.427l-5.881-8.607c-2.5-0.738-5.255-1.108-8.266-1.108
			c-2.273,0-4.432,0.2-6.478,0.597c-0.909,1.762-1.648,4.091-2.215,6.988c-0.569,2.897-0.853,5.824-0.853,8.777
			c0,6.307,1.15,10.98,3.451,14.019c2.301,3.04,5.951,4.617,10.951,4.73c1.987,0,4.502-0.299,7.542-0.896
			c3.038-0.597,6.008-1.377,8.905-2.344l2.642,9.375c-2.955,1.932-6.52,3.508-10.695,4.729c-4.176,1.221-8.195,1.832-12.059,1.832
			C603.969,923.683,597.321,921.041,592.663,915.757z"/>
		<path fill="#161616" d="M638.853,914.819l2.642-1.619l19.941-48.319l14.487-1.278l17.044,46.019
			c0.567,1.479,0.966,2.443,1.193,2.897c0.227,0.456,0.652,1.08,1.278,1.875l1.534,1.96l-0.512,6.051h-23.946l-0.853-8.096
			l6.051-1.534l-2.727-8.607l-17.3,0.256l-1.875,5.369c-0.171,0.511-0.256,0.938-0.256,1.278c0,0.397,0.07,0.696,0.213,0.895
			c0.142,0.2,0.384,0.355,0.725,0.469l5.88,2.472l-0.852,7.499h-22.328L638.853,914.819z M666.72,878.176l-5.625,16.361
			l10.994,0.512L666.72,878.176z"/>
		<path fill="#161616" d="M701.318,921.893l-0.426-8.181l6.221-1.704v-32.469c0-1.477-0.114-2.457-0.341-2.94
			c-0.228-0.481-0.824-0.923-1.789-1.32l-4.432-2.472l0.511-7.073c5.908-0.454,10.879-0.81,14.914-1.065
			c4.033-0.256,7.271-0.384,9.715-0.384c7.84,0,14.132,0.91,18.876,2.728c4.743,1.818,8.209,4.687,10.396,8.607
			c2.187,3.92,3.281,9.118,3.281,15.595c0,8.181-1.875,14.801-5.624,19.856c-3.354,4.375-7.798,7.4-13.337,9.075
			c-5.54,1.677-12.542,2.515-21.007,2.515C712.142,922.66,706.487,922.404,701.318,921.893z M740.349,908.77
			c0.512-1.42,0.98-3.636,1.406-6.647c0.427-3.011,0.64-5.823,0.64-8.437c0-6.42-1.321-11.164-3.963-14.231
			c-2.642-3.068-6.662-4.603-12.059-4.603c-0.739,0-1.421,0.029-2.045,0.085c-0.626,0.058-1.223,0.115-1.79,0.171v34.94
			c2.271,0.284,4.432,0.426,6.477,0.426C733.787,910.474,737.564,909.906,740.349,908.77z"/>
		<path fill="#161616" d="M761.823,913.712l6.221-1.704v-32.64c0-1.477-0.114-2.456-0.341-2.939
			c-0.228-0.482-0.824-0.923-1.789-1.321l-4.261-2.472l0.255-7.669h46.274c0.397,5.965,0.597,11.789,0.597,17.47l-6.307,0.426
			l-6.05-7.499l-12.868-0.341v13.891l18.151-1.534v13.124l-18.151-1.96v13.72l14.146-0.255l6.562-7.5l6.307,0.427
			c-0.229,5.965-0.654,11.789-1.278,17.47h-47.042L761.823,913.712z"/>
		<path fill="#161616" d="M832.043,884.737l-1.874,25.225v0.341c0,1.08,0.396,1.79,1.192,2.131l5.284,2.216l-0.853,7.755h-21.22
			l-0.853-7.585l3.921-2.386l4.857-32.895c0.056-0.397,0.085-0.88,0.085-1.449c0-0.682-0.157-1.192-0.469-1.533
			c-0.313-0.342-0.895-0.768-1.747-1.278l-3.92-2.216l0.512-8.096h24.458l12.186,39.712l12.102-39.712h22.839l0.341,8.947
			l-5.454,1.364l4.602,33.405c0.171,1.138,0.412,2.018,0.725,2.643c0.312,0.625,1.036,1.648,2.173,3.067l1.79,2.301l-0.512,5.71
			h-25.396l-0.767-7.84l6.988-1.79l-2.897-28.549l-10.908,38.52l-14.572,1.278L832.043,884.737z"/>
		<path fill="#161616" d="M904.395,914.053l7.329-2.045v-11.249l-15.595-24.97l-3.92-4.857l0.341-5.965h24.969l0.853,8.096
			l-5.539,1.533l8.947,15.17l7.414-12.527c0.227-0.397,0.342-0.795,0.342-1.193c0-0.625-0.342-1.079-1.023-1.363l-4.942-2.216
			l0.597-7.499h21.476l0.596,8.01l-3.408,2.046l-15.681,23.009v10.567c0,1.363,0.099,2.245,0.299,2.642
			c0.198,0.398,0.694,0.797,1.491,1.193l5.283,3.153l-0.341,6.817h-29.06L904.395,914.053z"/>
		<path fill="#161616" d="M969.331,893.515l20.794-2.813h4.432v11.249h-25.226V893.515z"/>
	</g>
</g>
<g id="Layer_2">
	<g>
		<defs>
			<path id="SVGID_1_" d="M170.979,534.001l30.708-8.286V339.034c0-8.446-0.571-14.052-1.706-16.816
				c-1.142-2.757-4.311-5.278-9.504-7.555l-20.472-11.698l1.462-46.305h152.074l2.437,49.717l-36.069,9.749v91.634l85.298-92.122
				c1.294-1.294,1.95-3.084,1.95-5.361c0-1.622-0.488-3.084-1.462-4.387l-14.135-17.06l5.362-32.17h113.081l5.849,33.145
				L374.233,409.222L493.65,563.246v21.934h-93.097L289.91,438.467v67.751c0,7.151,0.563,12.025,1.706,14.623
				c1.135,2.604,4.143,5.201,9.017,7.799l25.833,14.622l-1.949,41.918h-151.1L170.979,534.001z M513.139,541.8l15.109-9.262
				l114.057-276.366l82.86-7.311l97.484,263.206c3.244,8.453,5.521,13.975,6.823,16.572c1.295,2.604,3.732,6.176,7.312,10.723
				l8.773,11.211l-2.925,34.606H705.669l-4.874-46.305l34.606-8.773l-15.598-49.229l-98.945,1.462l-10.724,30.708
				c-0.975,2.924-1.462,5.361-1.462,7.312c0,2.276,0.403,3.982,1.218,5.117c0.808,1.143,2.193,2.034,4.144,2.681l33.632,14.136
				l-4.874,42.893H515.088L513.139,541.8z M672.524,332.209l-32.17,93.584l62.877,2.924L672.524,332.209z"/>
		</defs>
		<clipPath id="SVGID_2_">
			<use xlink:href="#SVGID_1_"  overflow="visible"/>
		</clipPath>
		
			<circle clip-path="url(#SVGID_2_)" fill="#161616" stroke="#161616" stroke-width="20" stroke-miterlimit="10" cx="503.776" cy="424.112" r="288.64"/>
	</g>
	<circle fill="none" stroke="#161616" stroke-width="20" stroke-miterlimit="10" cx="503.56" cy="435.569" r="296.083"/>
</g>
</svg>
